<?xml version="1.0" standalone="no"?>
<!DOCTYPE svg PUBLIC "-//W3C//DTD SVG 20010904//EN"
 "http://www.w3.org/TR/2001/REC-SVG-20010904/DTD/svg10.dtd">
<svg version="1.0" xmlns="http://www.w3.org/2000/svg"
 width="2048.000000pt" height="2048.000000pt" viewBox="0 0 2048.000000 2048.000000"
 preserveAspectRatio="xMidYMid meet">

<g transform="translate(0.000000,2048.000000) scale(0.100000,-0.100000)"
fill="#000000" stroke="none">
<path d="M5363 13172 c-9 -6 -12 -687 -13 -2927 -1 -1606 -1 -2926 -1 -2933 1
-10 119 -12 574 -10 l572 3 3 1983 c1 1100 6 1982 11 1982 4 0 20 -17 34 -37
58 -87 451 -684 577 -878 246 -377 840 -1276 1390 -2100 212 -319 434 -654
493 -745 58 -91 115 -175 127 -187 l21 -23 574 0 575 0 2 2047 3 2048 67 -100
c70 -105 363 -565 603 -945 78 -124 189 -297 247 -385 57 -88 160 -248 228
-355 68 -107 159 -251 203 -320 44 -69 120 -190 170 -270 161 -260 309 -480
319 -474 12 7 110 157 278 424 64 102 188 295 275 430 87 135 175 272 195 306
21 33 91 141 155 240 65 98 162 249 215 334 54 85 155 244 226 352 71 109 181
279 244 378 188 295 234 363 248 368 9 3 12 -409 12 -2037 l0 -2041 573 2 572
3 0 2935 0 2935 -619 3 c-485 2 -622 -1 -634 -10 -21 -17 -93 -130 -434 -677
-160 -256 -359 -574 -442 -706 -82 -132 -216 -346 -296 -475 -81 -129 -177
-282 -215 -340 -38 -58 -128 -202 -201 -320 -72 -118 -138 -216 -146 -218 -16
-3 -82 95 -248 368 -45 74 -131 212 -190 305 -59 94 -223 357 -365 585 -141
228 -302 487 -358 575 -55 88 -174 280 -264 427 -91 147 -197 316 -236 375
l-72 108 -635 0 -635 0 -5 -1955 -5 -1955 -78 120 c-44 66 -99 149 -124 185
-24 36 -562 841 -1195 1790 -1099 1647 -1199 1795 -1223 1812 -13 10 -1137 10
-1152 0z"/>
</g>
</svg>
